# xmcd
#
# Track frame offsets: 
#        150
#        11312
#        22650
#        34132
#        44002
#        52925
#        66862
#        77015
#        88785
#        100967
#        114007
#        127295
#        139390
#        150287
#        162955
#        175220
#        190100
#        202720
#
# Disc length: 2843 seconds
#
# Revision: 3
# Processed by: cddbd v1.5.1PL0 Copyright (c) Steve Scherf et al.
# Submitted via: ExactAudioCopy v0.95a5
#
DISCID=dd0b1912
DTITLE=Various Artist - Tell It Like It Is: #1 Soul Hits Of The 60's Volume 1
DYEAR=1997
DGENRE=R&B/Soul
TTITLE0=The Marvelettes - Please Mr. Postman
TTITLE1=The Tams - Hey Girl, Don't Bother Me
TTITLE2=Ruby and The Romantics - Our Day Will Come
TTITLE3=Joe Tex - I Want To (Do Everything For You)
TTITLE4=Solomon Burke - Got To Get You Off My Mind
TTITLE5=Eddie Floyd - Knock On Wood
TTITLE6=Lou Rawls - Love Is A Hurtin' Thing
TTITLE7=Erma Franklin - Piece Of My Heart
TTITLE8=Aaron Neville - Tell It Like It Is
TTITLE9=Mattie Moultrie - That's How Strong My Love Is
TTITLE10=Jackie Wilson - (Your Love Keeps Lifting Me) Higher And Highe
TTITLE10=r
TTITLE11=James Brown - I Got The Feelin'
TTITLE12=The Impressions - We're A Winner
TTITLE13=Tyrone Davis - Can I Change My Mind
TTITLE14=Joe Simon - The Chokin' Kind
TTITLE15=The Originals - Baby, I'm For Real
TTITLE16=The Isley Brothers - It's Your Thing
TTITLE17=Sly and The Family Stone - Everyday People
EXTD=
EXTT0=
EXTT1=
EXTT2=
EXTT3=
EXTT4=
EXTT5=
EXTT6=
EXTT7=
EXTT8=
EXTT9=
EXTT10=
EXTT11=
EXTT12=
EXTT13=
EXTT14=
EXTT15=
EXTT16=
EXTT17=
PLAYORDER=
